<svg xmlns="http://www.w3.org/2000/svg" xmlns:xlink="http://www.w3.org/1999/xlink" width="54" height="54" viewBox="0 0 54 54">
  <defs>
    <clipPath id="clip-path">
      <rect id="Rectangle_231" data-name="Rectangle 231" width="28.597" height="29.816" fill="#fff"/>
    </clipPath>
  </defs>
  <g id="Group_1721" data-name="Group 1721" transform="translate(-33 -364)">
    <g id="Group_1651" data-name="Group 1651" transform="translate(33 364)">
      <g id="Group_1635" data-name="Group 1635" transform="translate(54 54) rotate(180)">
        <rect id="Rectangle_219" data-name="Rectangle 219" width="54" height="54" rx="3" transform="translate(0.001 0)" fill="#93c95e"/>
      </g>
    </g>
    <g id="Group_1655" data-name="Group 1655" transform="translate(45.476 377.399)">
      <g id="Group_1654" data-name="Group 1654" clip-path="url(#clip-path)">
        <path id="Path_2790" data-name="Path 2790" d="M31.754,404.972,18.92,411.334a1.318,1.318,0,0,1-1.174,0L4.93,404.918a1.317,1.317,0,1,1,1.184-2.352l11.559,5.862a1.315,1.315,0,0,0,1.189,0l11.67-5.883a1.316,1.316,0,0,1,1.732.513l.043.073a1.316,1.316,0,0,1-.554,1.841" transform="translate(-4.035 -383.718)" fill="#fff"/>
        <path id="Path_2791" data-name="Path 2791" d="M31.754,285.279,18.92,291.642a1.317,1.317,0,0,1-1.174,0L4.93,285.226a1.318,1.318,0,1,1,1.184-2.354l11.559,5.862a1.316,1.316,0,0,0,1.189,0l11.67-5.886a1.318,1.318,0,0,1,1.732.515l.043.073a1.316,1.316,0,0,1-.554,1.841" transform="translate(-4.035 -270.125)" fill="#fff"/>
        <path id="Path_2792" data-name="Path 2792" d="M27.864,8.918,15.208,15.184a2.171,2.171,0,0,1-1.945,0L.726,8.882a1.317,1.317,0,0,1,0-2.354l12.53-6.3a2.183,2.183,0,0,1,1.954,0L27.868,6.56a1.317,1.317,0,0,1,0,2.358" transform="translate(0 0)" fill="#fff"/>
      </g>
    </g>
  </g>
</svg>
