<svg width="259" height="259" viewBox="0 0 259 259" fill="none" xmlns="http://www.w3.org/2000/svg">
<g clip-path="url(#clip0_201_275)">
<rect x="2" y="2" width="255" height="255" rx="44.8242" fill="url(#paint0_linear_201_275)"/>
<g filter="url(#filter0_d_201_275)">
<g filter="url(#filter1_d_201_275)">
<path d="M220.149 158.119C220.149 191.352 180.621 204.857 131.541 204.857C82.462 204.857 42.3584 191.352 42.3584 158.119C42.3584 124.885 82.1743 97.9932 131.254 97.9932C180.333 97.9932 220.149 124.944 220.149 158.119Z" fill="url(#paint1_linear_201_275)"/>
<path d="M219.379 158.119C219.379 174.346 209.762 185.806 193.922 193.253C178.052 200.715 156.03 204.087 131.541 204.087C107.053 204.087 84.8857 200.715 68.8706 193.252C52.8827 185.802 43.129 174.341 43.129 158.119C43.129 141.835 52.8833 127.015 68.8329 116.232C84.7782 105.452 106.847 98.7638 131.254 98.7638C155.66 98.7638 177.729 105.466 193.674 116.254C209.624 127.044 219.379 141.864 219.379 158.119Z" stroke="url(#paint2_linear_201_275)" stroke-width="1.5412"/>
</g>
<g filter="url(#filter2_d_201_275)">
<g filter="url(#filter3_bdi_201_275)">
<path d="M211.129 85.7621C211.129 68.2646 197.205 54.0552 180.059 54.0552C170.392 54.0552 161.762 58.5764 156.065 65.6223C148.298 63.8608 140.012 62.8627 131.439 62.8627C122.866 62.8627 114.581 63.8021 106.813 65.6223C101.06 58.5764 92.429 54.0552 82.8202 54.0552C65.6741 54.0552 51.75 68.2646 51.75 85.7621C51.75 91.5163 53.246 96.8595 55.8352 101.498C53.3611 106.9 52.0377 112.654 52.0377 118.643C52.0377 149.47 87.5958 174.424 131.439 174.424C175.283 174.424 210.841 149.47 210.841 118.643C210.841 112.654 209.518 106.9 207.044 101.498C209.633 96.8595 211.129 91.5163 211.129 85.7621Z" fill="url(#paint3_linear_201_275)" shape-rendering="crispEdges"/>
<path d="M155.964 66.0715L156.243 66.1349L156.424 65.9119C162.038 58.9672 170.54 54.5157 180.059 54.5157C196.942 54.5157 210.668 68.5101 210.668 85.7621C210.668 91.4351 209.194 96.7013 206.641 101.274L206.528 101.478L206.625 101.69C209.073 107.035 210.381 112.724 210.381 118.643C210.381 133.866 201.602 147.685 187.317 157.717C173.033 167.748 153.278 173.964 131.439 173.964C109.601 173.964 89.8454 167.748 75.5619 157.717C61.277 147.685 52.4982 133.866 52.4982 118.643C52.4982 112.724 53.8059 107.035 56.2539 101.69L56.3511 101.478L56.2373 101.274C53.6851 96.7013 52.2105 91.4351 52.2105 85.7621C52.2105 68.5101 65.9372 54.5157 82.8202 54.5157C92.2806 54.5157 100.784 58.9666 106.457 65.9136L106.638 66.1363L106.918 66.0707C114.65 64.259 122.9 63.3232 131.439 63.3232C139.977 63.3232 148.228 64.3172 155.964 66.0715Z" stroke="url(#paint4_linear_201_275)" stroke-width="0.92103" shape-rendering="crispEdges"/>
</g>
<g filter="url(#filter4_d_201_275)">
<path d="M80.3155 103.401C90.8019 103.401 99.3028 94.7257 99.3028 84.0244C99.3028 73.3231 90.8019 64.6479 80.3155 64.6479C69.8291 64.6479 61.3281 73.3231 61.3281 84.0244C61.3281 94.7257 69.8291 103.401 80.3155 103.401Z" fill="url(#paint5_linear_201_275)"/>
<path d="M98.9575 84.0244C98.9575 94.5416 90.6046 103.055 80.3155 103.055C70.0264 103.055 61.6735 94.5416 61.6735 84.0244C61.6735 73.5072 70.0264 64.9933 80.3155 64.9933C90.6046 64.9933 98.9575 73.5072 98.9575 84.0244Z" stroke="url(#paint6_linear_201_275)" stroke-width="0.690773"/>
</g>
<g filter="url(#filter5_d_201_275)">
<path d="M181.629 103.401C192.115 103.401 200.616 94.7257 200.616 84.0244C200.616 73.3231 192.115 64.6479 181.629 64.6479C171.143 64.6479 162.642 73.3231 162.642 84.0244C162.642 94.7257 171.143 103.401 181.629 103.401Z" fill="url(#paint7_linear_201_275)"/>
<path d="M200.271 84.0244C200.271 94.5416 191.918 103.055 181.629 103.055C171.34 103.055 162.987 94.5416 162.987 84.0244C162.987 73.5072 171.34 64.9933 181.629 64.9933C191.918 64.9933 200.271 73.5072 200.271 84.0244Z" stroke="url(#paint8_linear_201_275)" stroke-width="0.690773"/>
</g>
</g>
<g filter="url(#filter6_bd_201_275)">
<path d="M70.1792 202.573C74.2644 202.573 77.4865 198.933 77.0262 194.823C75.3576 180.261 68.2805 148.73 37.1527 129.765C-4.27424 104.517 28.5221 191.417 28.5221 191.417L19.949 196.467C17.0722 198.17 18.2804 202.573 21.5601 202.573H70.1792Z" fill="#32DA6D"/>
<path d="M70.1792 202.573C74.2644 202.573 77.4865 198.933 77.0262 194.823C75.3576 180.261 68.2805 148.73 37.1527 129.765C-4.27424 104.517 28.5221 191.417 28.5221 191.417L19.949 196.467C17.0722 198.17 18.2804 202.573 21.5601 202.573H70.1792Z" fill="url(#paint9_linear_201_275)"/>
<path d="M28.5221 191.417C29.2431 191.145 29.243 191.145 29.2428 191.144L29.2418 191.142L29.2375 191.13L29.2202 191.084C29.2114 191.061 29.2002 191.031 29.1866 190.994C29.1763 190.967 29.1646 190.935 29.1517 190.9C29.0914 190.738 29.0023 190.497 28.8878 190.183C28.6587 189.556 28.3278 188.638 27.921 187.478C27.1074 185.157 25.991 181.87 24.7804 178.003C22.3573 170.265 19.5647 160.231 18.0629 150.999C17.3119 146.383 16.8877 141.99 16.9871 138.197C17.0869 134.386 17.714 131.271 18.9884 129.142C20.2261 127.074 22.0906 125.899 24.8777 125.935C27.7403 125.973 31.616 127.293 36.7517 130.423L36.7518 130.423C67.5752 149.203 74.6015 180.434 76.2604 194.909C76.6705 198.571 73.796 201.803 70.1792 201.803H21.5601C19.0844 201.803 18.1221 198.444 20.3415 197.13L28.9132 192.081L29.4721 191.752L29.2431 191.145L28.5221 191.417Z" stroke="url(#paint10_linear_201_275)" stroke-width="1.5412"/>
</g>
<g filter="url(#filter7_bd_201_275)">
<path d="M193.802 202.573C190.119 202.573 187.242 198.933 187.645 194.823C189.084 180.32 195.528 148.73 223.606 129.765C261.063 104.517 231.431 191.417 231.431 191.417L239.199 196.467C241.788 198.17 240.695 202.573 237.76 202.573H193.802Z" fill="#32DA6D"/>
<path d="M193.802 202.573C190.119 202.573 187.242 198.933 187.645 194.823C189.084 180.32 195.528 148.73 223.606 129.765C261.063 104.517 231.431 191.417 231.431 191.417L239.199 196.467C241.788 198.17 240.695 202.573 237.76 202.573H193.802Z" fill="url(#paint11_linear_201_275)"/>
<path d="M231.431 191.417L230.702 191.168L230.508 191.736L231.011 192.063L238.775 197.111C238.776 197.111 238.776 197.111 238.776 197.111C239.741 197.747 240.059 198.908 239.802 199.978C239.543 201.052 238.773 201.803 237.76 201.803H193.802C190.673 201.803 188.044 198.659 188.412 194.899C189.844 180.465 196.25 149.172 224.037 130.404C228.679 127.275 232.16 125.972 234.708 125.935C235.964 125.917 236.987 126.206 237.829 126.732C238.674 127.261 239.38 128.055 239.953 129.113C241.111 131.251 241.68 134.377 241.772 138.195C241.863 141.994 241.48 146.392 240.802 151.011C239.447 160.247 236.923 170.284 234.734 178.024C233.641 181.891 232.632 185.179 231.897 187.5C231.529 188.66 231.23 189.578 231.023 190.206C230.919 190.52 230.839 190.761 230.784 190.923L230.722 191.107L230.707 191.154L230.703 191.165L230.702 191.168C230.702 191.168 230.702 191.168 231.431 191.417Z" stroke="url(#paint12_linear_201_275)" stroke-width="1.5412"/>
</g>
<path d="M80.3517 87.4474C82.2583 87.4474 83.8039 85.8701 83.8039 83.9244C83.8039 81.9787 82.2583 80.4014 80.3517 80.4014C78.445 80.4014 76.8994 81.9787 76.8994 83.9244C76.8994 85.8701 78.445 87.4474 80.3517 87.4474Z" fill="url(#paint13_linear_201_275)"/>
<path d="M181.571 87.4474C183.478 87.4474 185.024 85.8701 185.024 83.9244C185.024 81.9787 183.478 80.4014 181.571 80.4014C179.665 80.4014 178.119 81.9787 178.119 83.9244C178.119 85.8701 179.665 87.4474 181.571 87.4474Z" fill="url(#paint14_linear_201_275)"/>
</g>
</g>
<rect x="1.37744" y="1.37744" width="256.245" height="256.245" rx="45.4468" stroke="url(#paint15_linear_201_275)" stroke-width="1.24512"/>
<defs>
<filter id="filter0_d_201_275" x="-1.97656" y="47.4956" width="262.711" height="187.259" filterUnits="userSpaceOnUse" color-interpolation-filters="sRGB">
<feFlood flood-opacity="0" result="BackgroundImageFix"/>
<feColorMatrix in="SourceAlpha" type="matrix" values="0 0 0 0 0 0 0 0 0 0 0 0 0 0 0 0 0 0 127 0" result="hardAlpha"/>
<feOffset dy="11.7041"/>
<feGaussianBlur stdDeviation="9.08936"/>
<feComposite in2="hardAlpha" operator="out"/>
<feColorMatrix type="matrix" values="0 0 0 0 0 0 0 0 0 0 0 0 0 0 0 0 0 0 0.25 0"/>
<feBlend mode="normal" in2="BackgroundImageFix" result="effect1_dropShadow_201_275"/>
<feBlend mode="normal" in="SourceGraphic" in2="effect1_dropShadow_201_275" result="shape"/>
</filter>
<filter id="filter1_d_201_275" x="35.9112" y="93.1578" width="190.685" height="119.759" filterUnits="userSpaceOnUse" color-interpolation-filters="sRGB">
<feFlood flood-opacity="0" result="BackgroundImageFix"/>
<feColorMatrix in="SourceAlpha" type="matrix" values="0 0 0 0 0 0 0 0 0 0 0 0 0 0 0 0 0 0 127 0" result="hardAlpha"/>
<feOffset dy="1.6118"/>
<feGaussianBlur stdDeviation="3.22361"/>
<feComposite in2="hardAlpha" operator="out"/>
<feColorMatrix type="matrix" values="0 0 0 0 0 0 0 0 0 0 0 0 0 0 0 0 0 0 0.25 0"/>
<feBlend mode="normal" in2="BackgroundImageFix" result="effect1_dropShadow_201_275"/>
<feBlend mode="normal" in="SourceGraphic" in2="effect1_dropShadow_201_275" result="shape"/>
</filter>
<filter id="filter2_d_201_275" x="33.5713" y="47.5806" width="195.736" height="156.727" filterUnits="userSpaceOnUse" color-interpolation-filters="sRGB">
<feFlood flood-opacity="0" result="BackgroundImageFix"/>
<feColorMatrix in="SourceAlpha" type="matrix" values="0 0 0 0 0 0 0 0 0 0 0 0 0 0 0 0 0 0 127 0" result="hardAlpha"/>
<feOffset dy="11.7041"/>
<feGaussianBlur stdDeviation="9.08936"/>
<feComposite in2="hardAlpha" operator="out"/>
<feColorMatrix type="matrix" values="0 0 0 0 0 0 0 0 0 0 0 0 0 0 0 0 0 0 0.25 0"/>
<feBlend mode="normal" in2="BackgroundImageFix" result="effect1_dropShadow_201_275"/>
<feBlend mode="normal" in="SourceGraphic" in2="effect1_dropShadow_201_275" result="shape"/>
</filter>
<filter id="filter3_bdi_201_275" x="37.2438" y="39.549" width="188.391" height="149.382" filterUnits="userSpaceOnUse" color-interpolation-filters="sRGB">
<feFlood flood-opacity="0" result="BackgroundImageFix"/>
<feGaussianBlur in="BackgroundImageFix" stdDeviation="7.25311"/>
<feComposite in2="SourceAlpha" operator="in" result="effect1_backgroundBlur_201_275"/>
<feColorMatrix in="SourceAlpha" type="matrix" values="0 0 0 0 0 0 0 0 0 0 0 0 0 0 0 0 0 0 127 0" result="hardAlpha"/>
<feOffset dy="1.6118"/>
<feGaussianBlur stdDeviation="3.22361"/>
<feComposite in2="hardAlpha" operator="out"/>
<feColorMatrix type="matrix" values="0 0 0 0 0 0 0 0 0 0 0 0 0 0 0 0 0 0 0.25 0"/>
<feBlend mode="normal" in2="effect1_backgroundBlur_201_275" result="effect2_dropShadow_201_275"/>
<feBlend mode="normal" in="SourceGraphic" in2="effect2_dropShadow_201_275" result="shape"/>
<feColorMatrix in="SourceAlpha" type="matrix" values="0 0 0 0 0 0 0 0 0 0 0 0 0 0 0 0 0 0 127 0" result="hardAlpha"/>
<feOffset dy="3.22361"/>
<feGaussianBlur stdDeviation="5.18079"/>
<feComposite in2="hardAlpha" operator="arithmetic" k2="-1" k3="1"/>
<feColorMatrix type="matrix" values="0 0 0 0 0 0 0 0 0 0 0 0 0 0 0 0 0 0 0.25 0"/>
<feBlend mode="normal" in2="shape" result="effect3_innerShadow_201_275"/>
</filter>
<filter id="filter4_d_201_275" x="49.1245" y="54.2864" width="62.3819" height="63.1602" filterUnits="userSpaceOnUse" color-interpolation-filters="sRGB">
<feFlood flood-opacity="0" result="BackgroundImageFix"/>
<feColorMatrix in="SourceAlpha" type="matrix" values="0 0 0 0 0 0 0 0 0 0 0 0 0 0 0 0 0 0 127 0" result="hardAlpha"/>
<feOffset dy="1.84206"/>
<feGaussianBlur stdDeviation="6.10182"/>
<feComposite in2="hardAlpha" operator="out"/>
<feColorMatrix type="matrix" values="0 0 0 0 0 0 0 0 0 0 0 0 0 0 0 0 0 0 0.25 0"/>
<feBlend mode="normal" in2="BackgroundImageFix" result="effect1_dropShadow_201_275"/>
<feBlend mode="normal" in="SourceGraphic" in2="effect1_dropShadow_201_275" result="shape"/>
</filter>
<filter id="filter5_d_201_275" x="150.438" y="54.2864" width="62.3819" height="63.1602" filterUnits="userSpaceOnUse" color-interpolation-filters="sRGB">
<feFlood flood-opacity="0" result="BackgroundImageFix"/>
<feColorMatrix in="SourceAlpha" type="matrix" values="0 0 0 0 0 0 0 0 0 0 0 0 0 0 0 0 0 0 127 0" result="hardAlpha"/>
<feOffset dy="1.84206"/>
<feGaussianBlur stdDeviation="6.10182"/>
<feComposite in2="hardAlpha" operator="out"/>
<feColorMatrix type="matrix" values="0 0 0 0 0 0 0 0 0 0 0 0 0 0 0 0 0 0 0.25 0"/>
<feBlend mode="normal" in2="BackgroundImageFix" result="effect1_dropShadow_201_275"/>
<feBlend mode="normal" in="SourceGraphic" in2="effect1_dropShadow_201_275" result="shape"/>
</filter>
<filter id="filter6_bd_201_275" x="1.69592" y="110.658" width="89.8806" height="106.422" filterUnits="userSpaceOnUse" color-interpolation-filters="sRGB">
<feFlood flood-opacity="0" result="BackgroundImageFix"/>
<feGaussianBlur in="BackgroundImageFix" stdDeviation="7.25311"/>
<feComposite in2="SourceAlpha" operator="in" result="effect1_backgroundBlur_201_275"/>
<feColorMatrix in="SourceAlpha" type="matrix" values="0 0 0 0 0 0 0 0 0 0 0 0 0 0 0 0 0 0 127 0" result="hardAlpha"/>
<feOffset dy="1.6118"/>
<feGaussianBlur stdDeviation="3.22361"/>
<feComposite in2="hardAlpha" operator="out"/>
<feColorMatrix type="matrix" values="0 0 0 0 0 0 0 0 0 0 0 0 0 0 0 0 0 0 0.25 0"/>
<feBlend mode="normal" in2="effect1_backgroundBlur_201_275" result="effect2_dropShadow_201_275"/>
<feBlend mode="normal" in="SourceGraphic" in2="effect2_dropShadow_201_275" result="shape"/>
</filter>
<filter id="filter7_bd_201_275" x="173.101" y="110.658" width="83.9607" height="106.422" filterUnits="userSpaceOnUse" color-interpolation-filters="sRGB">
<feFlood flood-opacity="0" result="BackgroundImageFix"/>
<feGaussianBlur in="BackgroundImageFix" stdDeviation="7.25311"/>
<feComposite in2="SourceAlpha" operator="in" result="effect1_backgroundBlur_201_275"/>
<feColorMatrix in="SourceAlpha" type="matrix" values="0 0 0 0 0 0 0 0 0 0 0 0 0 0 0 0 0 0 127 0" result="hardAlpha"/>
<feOffset dy="1.6118"/>
<feGaussianBlur stdDeviation="3.22361"/>
<feComposite in2="hardAlpha" operator="out"/>
<feColorMatrix type="matrix" values="0 0 0 0 0 0 0 0 0 0 0 0 0 0 0 0 0 0 0.25 0"/>
<feBlend mode="normal" in2="effect1_backgroundBlur_201_275" result="effect2_dropShadow_201_275"/>
<feBlend mode="normal" in="SourceGraphic" in2="effect2_dropShadow_201_275" result="shape"/>
</filter>
<linearGradient id="paint0_linear_201_275" x1="17.5" y1="2" x2="129.5" y2="257" gradientUnits="userSpaceOnUse">
<stop stop-color="#80BE96"/>
<stop offset="1" stop-color="#1C6435"/>
</linearGradient>
<linearGradient id="paint1_linear_201_275" x1="131.254" y1="97.9932" x2="131.254" y2="204.857" gradientUnits="userSpaceOnUse">
<stop stop-color="#4BAF74"/>
<stop offset="1" stop-color="#26824B"/>
</linearGradient>
<linearGradient id="paint2_linear_201_275" x1="131.254" y1="97.9932" x2="131.254" y2="204.857" gradientUnits="userSpaceOnUse">
<stop stop-color="white"/>
<stop offset="1" stop-color="#9B9B9B" stop-opacity="0"/>
</linearGradient>
<linearGradient id="paint3_linear_201_275" x1="134.898" y1="46.7175" x2="131.439" y2="174.424" gradientUnits="userSpaceOnUse">
<stop stop-color="#32DA6D"/>
<stop offset="1" stop-color="#209F4D" stop-opacity="0.81"/>
</linearGradient>
<linearGradient id="paint4_linear_201_275" x1="131.439" y1="54.0552" x2="131.439" y2="174.424" gradientUnits="userSpaceOnUse">
<stop stop-color="white"/>
<stop offset="1" stop-color="#9B9B9B" stop-opacity="0"/>
</linearGradient>
<linearGradient id="paint5_linear_201_275" x1="80.3155" y1="64.6479" x2="80.3155" y2="103.401" gradientUnits="userSpaceOnUse">
<stop stop-color="white"/>
<stop offset="1" stop-color="#C4C4C4"/>
</linearGradient>
<linearGradient id="paint6_linear_201_275" x1="80.3155" y1="64.6479" x2="80.3155" y2="103.401" gradientUnits="userSpaceOnUse">
<stop/>
<stop offset="1" stop-opacity="0"/>
</linearGradient>
<linearGradient id="paint7_linear_201_275" x1="181.629" y1="64.6479" x2="181.629" y2="103.401" gradientUnits="userSpaceOnUse">
<stop stop-color="white"/>
<stop offset="1" stop-color="#C4C4C4"/>
</linearGradient>
<linearGradient id="paint8_linear_201_275" x1="181.629" y1="64.6479" x2="181.629" y2="103.401" gradientUnits="userSpaceOnUse">
<stop/>
<stop offset="1" stop-opacity="0"/>
</linearGradient>
<linearGradient id="paint9_linear_201_275" x1="47.957" y1="120.445" x2="44.2165" y2="202.463" gradientUnits="userSpaceOnUse">
<stop stop-color="#32DA6D"/>
<stop offset="1" stop-color="#209F4D"/>
</linearGradient>
<linearGradient id="paint10_linear_201_275" x1="46.6361" y1="125.164" x2="46.6361" y2="202.573" gradientUnits="userSpaceOnUse">
<stop stop-color="white"/>
<stop offset="1" stop-color="#9B9B9B" stop-opacity="0"/>
</linearGradient>
<linearGradient id="paint11_linear_201_275" x1="216.274" y1="120.445" x2="212.133" y2="202.424" gradientUnits="userSpaceOnUse">
<stop stop-color="#32DA6D"/>
<stop offset="1" stop-color="#209F4D"/>
</linearGradient>
<linearGradient id="paint12_linear_201_275" x1="215.082" y1="125.164" x2="215.082" y2="202.573" gradientUnits="userSpaceOnUse">
<stop stop-color="white"/>
<stop offset="1" stop-color="#9B9B9B" stop-opacity="0"/>
</linearGradient>
<linearGradient id="paint13_linear_201_275" x1="80.3517" y1="80.4014" x2="80.3517" y2="87.4474" gradientUnits="userSpaceOnUse">
<stop stop-color="#0D0D0D"/>
<stop offset="1" stop-color="#6A6A6A"/>
</linearGradient>
<linearGradient id="paint14_linear_201_275" x1="181.571" y1="80.4014" x2="181.571" y2="87.4474" gradientUnits="userSpaceOnUse">
<stop stop-color="#0D0D0D"/>
<stop offset="1" stop-color="#6A6A6A"/>
</linearGradient>
<linearGradient id="paint15_linear_201_275" x1="129.5" y1="2" x2="129.5" y2="257" gradientUnits="userSpaceOnUse">
<stop stop-color="white"/>
<stop offset="1" stop-color="#9B9B9B" stop-opacity="0"/>
</linearGradient>
<clipPath id="clip0_201_275">
<rect x="2" y="2" width="255" height="255" rx="44.8242" fill="white"/>
</clipPath>
</defs>
</svg>
